HIERARCHY
ROOT Hips
{
	OFFSET 0.00000 0.00000 0.00000
	CHANNELS 6 Xposition Yposition Zposition Zrotation Yrotation Xrotation 
	JOINT LHipJoint
	{
		OFFSET 0 0 0
		CHANNELS 3 Zrotation Yrotation Xrotation
		JOINT LeftUpLeg
		{
			OFFSET 1.54859 -1.61379 0.86856
			CHANNELS 3 Zrotation Yrotation Xrotation
			JOINT LeftLeg
			{
				OFFSET 2.25087 -6.18423 0.00000
				CHANNELS 3 Zrotation Yrotation Xrotation
				JOINT LeftFoot
				{
					OFFSET 2.40328 -6.60297 0.00000
					CHANNELS 3 Zrotation Yrotation Xrotation
					JOINT LeftToeBase
					{
						OFFSET 0.17435 -0.47901 2.02453
						CHANNELS 3 Zrotation Yrotation Xrotation
						End Site
						{
							OFFSET 0.00000 -0.00000 1.04844
						}
					}
				}
			}
		}
	}
	JOINT RHipJoint
	{
		OFFSET 0 0 0
		CHANNELS 3 Zrotation Yrotation Xrotation
		JOINT RightUpLeg
		{
			OFFSET -1.54669 -1.61379 0.86856
			CHANNELS 3 Zrotation Yrotation Xrotation
			JOINT RightLeg
			{
				OFFSET -2.28132 -6.26789 0.00000
				CHANNELS 3 Zrotation Yrotation Xrotation
				JOINT RightFoot
				{
					OFFSET -2.51636 -6.91365 0.00000
					CHANNELS 3 Zrotation Yrotation Xrotation
					JOINT RightToeBase
					{
						OFFSET -0.15124 -0.41552 2.21090
						CHANNELS 3 Zrotation Yrotation Xrotation
						End Site
						{
							OFFSET -0.00000 -0.00000 1.13399
						}
					}
				}
			}
		}
	}
	JOINT LowerBack
	{
		OFFSET 0 0 0
		CHANNELS 3 Zrotation Yrotation Xrotation
		JOINT Spine
		{
			OFFSET -0.04287 2.26161 -0.25690
			CHANNELS 3 Zrotation Yrotation Xrotation
			JOINT Spine1
			{
				OFFSET 0.02248 2.28395 -0.10140
				CHANNELS 3 Zrotation Yrotation Xrotation
				JOINT Neck
				{
					OFFSET 0 0 0
					CHANNELS 3 Zrotation Yrotation Xrotation
					JOINT Neck1
					{
						OFFSET -0.11644 1.38496 0.11345
						CHANNELS 3 Zrotation Yrotation Xrotation
						JOINT Head
						{
							OFFSET 0.29383 1.36600 0.06642
							CHANNELS 3 Zrotation Yrotation Xrotation
							End Site
							{
								OFFSET 0.11075 1.41395 -0.00294
							}
						}
					}
				}
				JOINT LeftShoulder
				{
					OFFSET 0 0 0
					CHANNELS 3 Zrotation Yrotation Xrotation
					JOINT LeftArm
					{
						OFFSET 3.51628 0.59542 -0.30346
						CHANNELS 3 Zrotation Yrotation Xrotation
						JOINT LeftForeArm
						{
							OFFSET 4.76405 -0.00000 0.00000
							CHANNELS 3 Zrotation Yrotation Xrotation
							JOINT LeftHand
							{
								OFFSET 3.13759 -0.00000 -0.00000
								CHANNELS 3 Zrotation Yrotation Xrotation
								JOINT LeftFingerBase
								{
									OFFSET 0 0 0
									CHANNELS 3 Zrotation Yrotation Xrotation
									JOINT LeftHandIndex1
									{
										OFFSET 0.73226 -0.00000 -0.00000
										CHANNELS 3 Zrotation Yrotation Xrotation
										End Site
										{
											OFFSET 0.59037 -0.00000 -0.00000
										}
									}
								}
								JOINT LThumb
								{
									OFFSET 0 0 0
									CHANNELS 3 Zrotation Yrotation Xrotation
									End Site
									{
										OFFSET 0.59938 -0.00000 0.59938
									}
								}
							}
						}
					}
				}
				JOINT RightShoulder
				{
					OFFSET 0 0 0
					CHANNELS 3 Zrotation Yrotation Xrotation
					JOINT RightArm
					{
						OFFSET -3.30990 0.84213 -0.36430
						CHANNELS 3 Zrotation Yrotation Xrotation
						JOINT RightForeArm
						{
							OFFSET -5.10161 -0.00000 -0.00000
							CHANNELS 3 Zrotation Yrotation Xrotation
							JOINT RightHand
							{
								OFFSET -3.23267 -0.00000 -0.00000
								CHANNELS 3 Zrotation Yrotation Xrotation
								JOINT RightFingerBase
								{
									OFFSET 0 0 0
									CHANNELS 3 Zrotation Yrotation Xrotation
									JOINT RightHandIndex1
									{
										OFFSET -0.70200 -0.00000 -0.00000
										CHANNELS 3 Zrotation Yrotation Xrotation
										End Site
										{
											OFFSET -0.56597 -0.00000 -0.00000
										}
									}
								}
								JOINT RThumb
								{
									OFFSET 0 0 0
									CHANNELS 3 Zrotation Yrotation Xrotation
									End Site
									{
										OFFSET -0.57461 -0.00000 0.57461
									}
								}
							}
						}
					}
				}
			}
		}
	}
}
MOTION
Frames: 15
Frame Time: .0083333
7.8366 15.4117 -1.6175 -158.4470 70.7739 -154.5290 0.0000 0.0000 0.0000 -19.0117 -9.1803 -34.9346 5.6195 14.0492 43.4347 0.1988 -4.4436 -8.0481 0.0630 1.6200 4.4567 0.0000 0.0000 0.0000 18.0695 -27.7371 5.6300 -21.5639 -19.9413 94.5770 0.3210 -10.3337 -6.6514 -0.1095 -2.1340 5.8760 3.0616 3.8839 11.9623 1.3280 5.8432 6.4241 -0.9956 3.1331 0.2009 -15.1457 -13.7805 0.7544 32.9656 -15.2247 -17.7136 12.8995 -8.1242 -0.8009 0.0000 0.0000 0.0000 -94.6603 10.1490 41.9039 110.7743 -58.3048 -77.8886 -0.0000 0.0000 -5.0601 20.7431 26.8374 9.7027 -7.1250 0.0000 -0.0000 -10.5416 58.0829 -3.3993 0.0000 0.0000 0.0000 84.6162 3.3391 32.3864 -16.1332 25.7009 -3.7035 0.0000 0.0000 13.3039 -22.6179 25.0952 -10.0208 7.1250 -0.0000 -0.0000 4.2246 -3.1421 3.9977
8.4019 15.2847 -1.6263 -162.3310 70.4515 -158.6130 0.0000 0.0000 0.0000 -19.4654 -11.5358 -33.4235 6.4458 14.8469 46.7456 0.3432 -4.1988 -10.4229 0.0344 -1.1981 -3.2939 0.0000 0.0000 0.0000 15.5281 -27.9465 2.0735 -23.8300 -19.6446 101.2623 0.1792 -8.6723 -7.8501 -0.1205 -2.2378 6.1632 1.9771 3.3808 12.7100 0.9644 5.0943 6.5323 -0.7417 2.7420 -0.1780 -15.3939 -13.3596 0.9291 33.6308 -14.6080 -17.5525 13.2947 -7.8343 -0.8281 -0.0000 0.0000 0.0000 -95.3692 4.9249 42.9914 107.3311 -58.8341 -74.9504 -0.0000 0.0000 -3.8979 24.0832 26.8320 11.4064 -7.1250 0.0000 -0.0000 -6.8847 58.8371 -2.3356 -0.0000 0.0000 0.0000 85.4778 3.0248 30.1910 -15.6723 25.0743 -3.5059 0.0000 0.0000 15.6196 -23.6728 25.1551 -10.5561 7.1250 -0.0000 -0.0000 3.5899 -2.8794 3.4119
8.9477 15.1453 -1.6132 -168.6900 70.5131 -164.7180 0.0000 0.0000 0.0000 -21.2264 -13.6585 -31.6728 7.0532 15.3765 49.0751 0.5857 -3.7794 -13.6649 0.1026 -2.0658 -5.6877 0.0000 0.0000 0.0000 11.7150 -28.3806 -1.0963 -25.7636 -19.1842 107.0748 0.0430 -5.8828 -7.0296 -0.0673 -1.6743 4.6064 -0.3751 3.0587 13.0748 0.4233 4.4115 6.6637 0.0707 2.3600 -0.3821 -15.8039 -13.2566 0.9774 34.3209 -14.4230 -17.6046 13.6668 -7.7533 -0.7667 -0.0000 -0.0000 0.0000 -96.1166 -0.8978 43.5114 103.7530 -59.2731 -71.8814 -0.0000 0.0000 -1.7102 23.6717 28.0433 11.6456 -7.1250 0.0000 -0.0000 -7.9461 59.9875 -2.9172 -0.0000 -0.0000 0.0000 86.1794 2.8282 28.2094 -15.2019 24.4266 -3.3090 0.0000 0.0000 17.4533 -24.5925 25.2675 -11.0539 7.1250 -0.0000 -0.0000 3.0457 -2.5802 2.9097
9.5344 15.1053 -1.5984 -176.2270 70.8223 -172.1720 0.0000 0.0000 0.0000 -23.7580 -12.8558 -29.4091 7.3094 15.5870 50.0350 0.7966 -4.3580 -15.9574 0.2004 -2.8828 -7.9527 0.0000 0.0000 0.0000 7.6756 -27.5581 -5.3762 -27.4605 -18.6095 112.3110 -0.0621 -3.0480 -6.8165 -0.0368 -1.2387 3.4060 -3.3409 2.9497 13.5392 -0.1676 3.9396 6.8970 1.1568 2.0790 -0.5166 -16.3105 -13.1558 0.7091 34.8186 -14.3320 -17.2881 13.9248 -7.6689 -0.5400 0.0000 0.0000 0.0000 -96.5543 -6.1134 44.1630 98.3487 -59.7350 -67.2237 -0.0000 0.0000 -0.3724 24.6221 27.7387 12.0414 -7.1250 0.0000 -0.0000 -6.7162 59.9026 -2.4494 0.0000 0.0000 0.0000 86.6730 2.6514 26.3689 -14.7085 23.7385 -3.1076 0.0000 0.0000 18.9848 -24.8228 25.4475 -11.2410 7.1250 -0.0000 -0.0000 2.9296 -2.3438 2.8110
10.1253 15.1037 -1.5912 -181.8420 70.8415 -177.8410 0.0000 0.0000 0.0000 -25.5659 -11.6803 -26.6703 7.3247 15.5994 50.0921 1.0022 -4.9847 -17.9107 0.2427 -3.1700 -8.7524 0.0000 0.0000 0.0000 4.8859 -26.6152 -9.6274 -28.7228 -18.0681 116.3215 -0.1239 -0.2550 -6.7441 -0.0682 -1.6846 4.6348 -5.5129 2.7960 14.0047 -0.5962 3.4880 7.0935 1.9718 1.8249 -0.6084 -16.3189 -12.9121 0.3836 34.5916 -14.0628 -16.8881 13.8353 -7.4866 -0.4735 -0.0000 -0.0000 0.0000 -96.6760 -11.1233 44.6192 93.3659 -59.9571 -62.9145 -0.0000 -0.0000 0.7157 24.9421 28.3144 12.4397 -7.1250 0.0000 -0.0000 -6.6416 60.5761 -2.5286 -0.0000 -0.0000 0.0000 87.1222 2.5126 24.5322 -14.1659 22.9713 -2.8925 0.0000 0.0000 20.2220 -25.3748 25.7980 -11.6628 7.1250 -0.0000 -0.0000 2.6433 -1.8597 2.5589
10.7147 15.1102 -1.5954 -184.9040 71.2776 -181.2950 0.0000 0.0000 0.0000 -26.4092 -9.3719 -23.8459 7.2049 15.5021 49.6452 1.1752 -6.2340 -19.3717 0.3033 -3.5407 -9.7879 0.0000 0.0000 0.0000 4.1294 -24.9869 -13.7162 -29.5370 -17.6621 118.9751 -0.1413 1.4214 -6.7442 -0.0004 -0.1270 0.3489 -6.6997 2.7472 14.6223 -0.8755 3.2643 7.2523 2.3528 1.7061 -0.7782 -16.0654 -12.6070 0.1441 33.9510 -13.7077 -16.5706 13.5635 -7.2718 -0.5441 -0.0000 0.0000 0.0000 -96.3170 -15.6388 44.6720 88.4035 -59.9904 -58.6174 -0.0000 -0.0000 1.0489 25.3528 28.2889 12.6561 -7.1250 0.0000 -0.0000 -6.1560 60.6512 -2.3539 -0.0000 0.0000 0.0000 87.6181 2.4359 22.4836 -13.5919 22.1482 -2.6723 0.0000 0.0000 21.7912 -25.4008 25.9067 -11.7207 7.1250 -0.0000 -0.0000 2.6425 -1.7393 2.5638
11.2879 15.0874 -1.5936 -187.3240 71.8237 -183.8650 0.0000 0.0000 0.0000 -26.7755 -6.8848 -21.5299 7.0793 15.3983 49.1734 1.2946 -7.7316 -20.3414 0.3283 -3.6824 -10.1848 0.0000 0.0000 0.0000 4.6297 -22.2180 -19.0195 -30.2637 -17.2589 121.3967 -0.1256 2.8723 -6.3158 -0.0301 -1.1197 3.0783 -7.6992 2.6186 15.0609 -1.0461 2.9293 7.2134 2.7665 1.5325 -1.0419 -16.0703 -12.2169 -0.3175 33.2812 -13.3241 -15.8669 13.2959 -7.0012 -0.4526 -0.0000 -0.0000 0.0000 -95.5718 -19.4930 44.0390 83.8056 -59.8545 -54.6381 -0.0000 -0.0000 0.7603 26.4232 27.7330 13.0201 -7.1250 0.0000 -0.0000 -4.6513 60.3362 -1.7420 -0.0000 -0.0000 0.0000 87.8982 2.4223 20.6632 -13.0999 21.4334 -2.4897 0.0000 0.0000 23.5472 -24.6352 25.7949 -11.2852 7.1250 -0.0000 -0.0000 3.0884 -2.0156 2.9823
11.8686 15.0670 -1.5976 -189.3860 72.3627 -185.7390 0.0000 0.0000 0.0000 -26.8416 -4.5542 -19.5038 6.9377 15.2792 48.6382 1.3597 -8.8338 -20.8915 0.3739 -3.9274 -10.8726 0.0000 0.0000 0.0000 6.0637 -18.9226 -24.5702 -30.6743 -17.0128 122.7900 -0.1236 3.0653 -6.2849 -0.0000 0.0045 -0.0125 -8.6341 2.3064 14.9485 -1.1046 2.3816 7.0576 3.3195 1.2410 -1.1077 -15.9440 -11.5490 -0.8391 32.0136 -12.5962 -15.0342 12.8207 -6.5444 -0.4782 -0.0000 -0.0000 0.0000 -94.3190 -22.8055 42.4050 80.5789 -59.6620 -51.8504 -0.0000 0.0000 -0.3207 25.8683 27.7775 12.7337 -7.1250 0.0000 -0.0000 -5.3122 60.2462 -1.9789 -0.0000 -0.0000 0.0000 87.8811 2.3421 19.6018 -12.8927 21.1297 -2.4145 0.0000 0.0000 24.5489 -23.6341 25.3926 -10.6280 7.1250 -0.0000 -0.0000 3.6424 -2.6376 3.4781
12.4702 15.0729 -1.6095 -190.6330 72.9279 -186.8240 0.0000 0.0000 0.0000 -26.4575 -2.1494 -17.3741 6.7527 15.1201 47.9327 1.3594 -9.5236 -20.9378 0.5549 -4.7716 -13.2584 0.0000 0.0000 0.0000 8.0322 -15.4321 -29.1483 -30.6258 -17.0426 122.6246 -0.1303 2.2717 -6.4089 -0.1050 2.0892 -5.7521 -9.1727 1.9090 14.7006 -1.1253 1.7749 6.8274 3.7020 0.9260 -1.1543 -16.1410 -10.9440 -0.9602 31.1862 -11.9669 -14.3062 12.5911 -6.1789 -0.4918 -0.0000 -0.0000 0.0000 -92.2724 -25.4014 40.3478 78.0411 -59.4526 -49.6623 -0.0000 0.0000 -2.0252 25.8357 27.5593 12.6268 -7.1250 0.0000 -0.0000 -5.2472 60.0103 -1.9251 -0.0000 -0.0000 0.0000 87.7906 1.9269 19.2166 -13.0677 21.3864 -2.4779 0.0000 0.0000 24.2582 -22.2103 24.7258 -9.6917 7.1250 -0.0000 -0.0000 4.4319 -3.6023 4.1573
13.0843 15.0954 -1.6295 -191.6560 73.3937 -187.5740 0.0000 0.0000 0.0000 -25.8640 0.1252 -15.2150 6.5088 14.9039 46.9911 1.2719 -10.2594 -20.3509 0.7836 -5.6513 -15.7761 0.0000 0.0000 0.0000 9.7368 -12.0066 -33.4372 -30.3492 -17.2088 121.6852 -0.1271 1.1345 -6.4289 -0.3586 3.8470 -10.6465 -9.4814 1.4116 14.2901 -1.1378 1.0839 6.5939 3.9766 0.5687 -1.0952 -16.4678 -10.3898 -1.3019 30.5079 -11.4012 -13.4411 12.4114 -5.8249 -0.3824 -0.0000 0.0000 0.0000 -89.6617 -27.5349 37.7848 76.0550 -59.2523 -47.9536 -0.0000 0.0000 -4.0100 25.4785 27.7615 12.5143 -7.1250 0.0000 -0.0000 -5.7519 60.1341 -2.1279 -0.0000 0.0000 0.0000 87.5256 1.3434 19.6558 -13.5787 22.1293 -2.6674 0.0000 0.0000 22.4310 -20.6113 24.1577 -8.7502 7.1250 -0.0000 -0.0000 5.3548 -4.4715 4.9431
13.7095 15.1309 -1.6573 -193.3700 73.5460 -188.7160 0.0000 0.0000 0.0000 -25.4765 1.8246 -13.0564 6.2065 14.6256 45.8051 1.0801 -10.9488 -18.9594 1.0794 -6.6038 -18.5466 0.0000 0.0000 0.0000 10.4476 -8.9767 -38.0338 -29.9475 -17.4392 120.3364 -0.1142 0.2970 -6.2835 -0.4096 4.1083 -11.3815 -9.9567 0.7584 13.5251 -1.1399 0.2132 6.3860 4.3746 0.1063 -0.7803 -16.5881 -9.8722 -2.0628 29.4660 -10.8219 -12.6482 12.0396 -5.4370 -0.2680 0.0000 -0.0000 0.0000 -86.8142 -29.4131 34.6212 74.1310 -59.0268 -46.3020 -0.0000 0.0000 -6.1105 24.3367 28.0441 12.0048 -7.1250 0.0000 -0.0000 -7.1941 60.1489 -2.6670 0.0000 -0.0000 0.0000 86.9860 0.6848 20.8521 -14.3416 23.2210 -2.9615 0.0000 0.0000 19.1722 -19.3419 23.9059 -8.0957 7.1250 -0.0000 -0.0000 6.1149 -4.9387 5.5984
14.3457 15.1628 -1.6813 -196.0390 73.3477 -190.8560 0.0000 0.0000 0.0000 -25.3475 3.1100 -10.6754 5.8699 14.3011 44.4574 0.8048 -11.4120 -16.7685 1.5834 -7.9384 -22.5271 0.0000 0.0000 0.0000 10.2634 -6.5806 -42.2227 -29.3565 -17.7562 118.3817 -0.1237 -0.0846 -6.6740 -0.4607 4.3540 -12.0748 -10.7433 0.0888 12.8644 -1.1654 -0.7182 6.1494 4.9090 -0.3875 -0.5135 -16.9702 -9.3616 -2.5341 28.8008 -10.2158 -12.0554 11.8872 -5.0662 -0.2064 -0.0000 0.0000 0.0000 -83.8184 -30.6872 31.2564 72.3830 -58.7942 -44.8050 -0.0000 0.0000 -8.4159 23.3805 28.3076 11.5860 -7.1250 0.0000 -0.0000 -8.4154 60.1876 -3.1311 -0.0000 0.0000 0.0000 86.3498 -0.3405 22.1384 -15.3402 24.6180 -3.3664 0.0000 0.0000 15.0156 -18.2167 23.8063 -7.5670 7.1250 -0.0000 -0.0000 6.8023 -5.2155 6.2007
15.0013 15.2048 -1.7056 -198.2390 73.0149 -192.8380 0.0000 0.0000 0.0000 -24.9536 4.3919 -7.9497 5.4961 13.9216 42.9244 0.4586 -11.8107 -13.6671 1.9153 -8.6873 -24.8220 0.0000 0.0000 0.0000 10.1141 -4.4880 -45.3870 -28.4720 -18.1839 115.5152 -0.1265 -0.9252 -7.1234 -0.6236 5.0534 -14.0608 -11.3945 -0.4919 12.3729 -1.1514 -1.5104 6.0330 5.3743 -0.8122 -0.2108 -17.5333 -8.9945 -2.8385 28.5013 -9.7806 -11.6011 11.8991 -4.7990 -0.1259 -0.0000 -0.0000 0.0000 -80.7333 -31.4561 27.9075 70.7040 -58.5453 -43.3708 -0.0000 0.0000 -10.4290 22.3211 28.3000 11.0144 -7.1250 0.0000 -0.0000 -9.6000 59.9254 -3.5163 -0.0000 -0.0000 0.0000 85.7417 -1.6200 23.1916 -16.6191 26.3529 -3.9168 0.0000 0.0000 10.4754 -17.6695 23.5161 -7.2438 7.1250 -0.0000 -0.0000 7.1194 -5.5939 6.4426
15.6706 15.2590 -1.7368 -199.8280 72.7032 -194.4220 0.0000 0.0000 0.0000 -24.2388 5.7258 -5.0487 5.0962 13.4913 41.2365 0.1128 -11.9027 -9.8462 2.1057 -9.0830 -26.0552 0.0000 0.0000 0.0000 9.9301 -2.6495 -47.8312 -27.3096 -18.6675 111.8390 -0.1236 -1.6733 -7.4784 -0.7048 5.3658 -14.9548 -11.8840 -0.9968 11.9846 -1.0500 -2.1852 5.9811 5.8166 -1.1799 0.0976 -17.9105 -8.8040 -3.3672 28.0240 -9.5910 -11.0219 11.7700 -4.6415 0.0582 0.0000 -0.0000 0.0000 -77.8148 -31.8948 24.4871 68.7267 -58.2190 -41.6869 -0.0000 0.0000 -12.1323 20.4026 27.4250 9.7212 -7.1250 0.0000 -0.0000 -11.2235 58.5974 -3.7618 0.0000 -0.0000 0.0000 85.0183 -3.1496 24.1618 -18.1744 28.3799 -4.6318 0.0000 0.0000 6.0875 -18.1422 23.2316 -7.3645 7.1250 -0.0000 -0.0000 6.8045 -5.8150 6.1245
16.3497 15.3212 -1.7716 -200.8240 72.4287 -195.4800 0.0000 0.0000 0.0000 -23.1999 7.0098 -2.0364 4.6302 12.9548 39.1996 -0.1725 -11.7159 -5.4659 2.3953 -9.6449 -27.8344 0.0000 0.0000 0.0000 9.8004 -1.1878 -49.7629 -25.8774 -19.1508 107.4213 -0.1097 -2.2816 -7.5324 -0.7465 5.5190 -15.3949 -12.2647 -1.4882 11.6381 -0.8557 -2.8438 5.8786 6.2870 -1.5371 0.3379 -18.4070 -8.2705 -2.8292 27.7182 -8.8974 -11.2460 11.8557 -4.3244 -0.2629 -0.0000 -0.0000 0.0000 -75.0865 -31.8392 21.0659 66.7800 -57.8614 -40.0352 -0.0000 0.0000 -14.3309 18.1207 28.4890 8.8720 -7.1250 0.0000 -0.0000 -14.3100 59.1327 -5.0053 -0.0000 -0.0000 0.0000 84.1794 -4.8553 24.9772 -19.7928 30.3919 -5.4261 0.0000 0.0000 2.5371 -19.1354 23.1311 -7.7618 7.1250 -0.0000 -0.0000 6.1782 -5.7684 5.5591
